<mxfile host="app.diagrams.net" modified="2022-02-12T02:53:20.087Z" agent="5.0 (Macintosh; Intel Mac OS X 10_15_7) AppleWebKit/605.1.15 (KHTML, like Gecko) Version/14.1.2 Safari/605.1.15" etag="nnX2r8BlVJY-i6onpjX2" version="16.5.6" type="github">
  <diagram id="peosAGzlrzDt36xBh3JH" name="Page-1">
    <mxGraphModel dx="1572" dy="896" grid="1" gridSize="10" guides="1" tooltips="1" connect="1" arrows="1" fold="1" page="1" pageScale="1" pageWidth="850" pageHeight="1100" math="0" shadow="0">
      <root>
        <mxCell id="0" />
        <mxCell id="1" parent="0" />
        <mxCell id="Su44JhsrkbpfJOnmUsiU-2" value="Musician" style="rounded=0;whiteSpace=wrap;html=1;" parent="1" vertex="1">
          <mxGeometry x="365" y="40" width="120" height="60" as="geometry" />
        </mxCell>
        <mxCell id="Su44JhsrkbpfJOnmUsiU-6" value="Church" style="rounded=0;whiteSpace=wrap;html=1;" parent="1" vertex="1">
          <mxGeometry x="160" y="430" width="120" height="60" as="geometry" />
        </mxCell>
        <mxCell id="Su44JhsrkbpfJOnmUsiU-7" value="Private parties" style="rounded=0;whiteSpace=wrap;html=1;" parent="1" vertex="1">
          <mxGeometry x="330" y="450" width="120" height="60" as="geometry" />
        </mxCell>
        <mxCell id="Su44JhsrkbpfJOnmUsiU-8" value="Outdoor" style="rounded=0;whiteSpace=wrap;html=1;" parent="1" vertex="1">
          <mxGeometry x="485" y="460" width="120" height="60" as="geometry" />
        </mxCell>
        <mxCell id="Su44JhsrkbpfJOnmUsiU-9" value="Concert" style="rounded=0;whiteSpace=wrap;html=1;" parent="1" vertex="1">
          <mxGeometry x="365" y="250" width="120" height="60" as="geometry" />
        </mxCell>
        <mxCell id="Su44JhsrkbpfJOnmUsiU-11" value="Performs at" style="rhombus;whiteSpace=wrap;html=1;rotation=0;" parent="1" vertex="1">
          <mxGeometry x="380" y="140" width="90" height="70" as="geometry" />
        </mxCell>
        <mxCell id="Su44JhsrkbpfJOnmUsiU-14" value="" style="endArrow=none;html=1;rounded=0;strokeColor=default;entryX=0.5;entryY=1;entryDx=0;entryDy=0;exitX=0.5;exitY=0;exitDx=0;exitDy=0;" parent="1" source="Su44JhsrkbpfJOnmUsiU-11" target="Su44JhsrkbpfJOnmUsiU-2" edge="1">
          <mxGeometry width="50" height="50" relative="1" as="geometry">
            <mxPoint x="400" y="150" as="sourcePoint" />
            <mxPoint x="450" y="100" as="targetPoint" />
          </mxGeometry>
        </mxCell>
        <mxCell id="Su44JhsrkbpfJOnmUsiU-16" value="d" style="ellipse;whiteSpace=wrap;html=1;aspect=fixed;" parent="1" vertex="1">
          <mxGeometry x="410" y="350" width="30" height="30" as="geometry" />
        </mxCell>
        <mxCell id="Su44JhsrkbpfJOnmUsiU-24" value="" style="shape=requiredInterface;html=1;verticalLabelPosition=bottom;sketch=0;direction=south;rotation=25;" parent="1" vertex="1">
          <mxGeometry x="395" y="410" width="20" height="10" as="geometry" />
        </mxCell>
        <mxCell id="Su44JhsrkbpfJOnmUsiU-27" value="" style="endArrow=none;html=1;rounded=0;strokeColor=default;entryX=0.5;entryY=1;entryDx=0;entryDy=0;exitX=1;exitY=0.5;exitDx=0;exitDy=0;exitPerimeter=0;" parent="1" source="Su44JhsrkbpfJOnmUsiU-24" target="Su44JhsrkbpfJOnmUsiU-16" edge="1">
          <mxGeometry width="50" height="50" relative="1" as="geometry">
            <mxPoint x="340" y="460" as="sourcePoint" />
            <mxPoint x="390" y="410" as="targetPoint" />
          </mxGeometry>
        </mxCell>
        <mxCell id="Su44JhsrkbpfJOnmUsiU-28" value="" style="endArrow=none;html=1;rounded=0;strokeColor=default;entryX=1;entryY=0.5;entryDx=0;entryDy=0;exitX=0.457;exitY=0.005;exitDx=0;exitDy=0;exitPerimeter=0;entryPerimeter=0;" parent="1" source="Su44JhsrkbpfJOnmUsiU-7" target="Su44JhsrkbpfJOnmUsiU-24" edge="1">
          <mxGeometry width="50" height="50" relative="1" as="geometry">
            <mxPoint x="414.9999999999999" y="430" as="sourcePoint" />
            <mxPoint x="414.9999999999999" y="380" as="targetPoint" />
          </mxGeometry>
        </mxCell>
        <mxCell id="Su44JhsrkbpfJOnmUsiU-30" value="" style="shape=requiredInterface;html=1;verticalLabelPosition=bottom;sketch=0;rotation=-210;" parent="1" vertex="1">
          <mxGeometry x="300" y="390" width="10" height="20" as="geometry" />
        </mxCell>
        <mxCell id="Su44JhsrkbpfJOnmUsiU-36" value="" style="endArrow=none;html=1;rounded=0;strokeColor=default;entryX=1;entryY=0.5;entryDx=0;entryDy=0;exitX=1;exitY=0.5;exitDx=0;exitDy=0;exitPerimeter=0;" parent="1" source="Su44JhsrkbpfJOnmUsiU-35" target="Su44JhsrkbpfJOnmUsiU-16" edge="1">
          <mxGeometry width="50" height="50" relative="1" as="geometry">
            <mxPoint x="350" y="470" as="sourcePoint" />
            <mxPoint x="415" y="380" as="targetPoint" />
          </mxGeometry>
        </mxCell>
        <mxCell id="Su44JhsrkbpfJOnmUsiU-35" value="" style="shape=requiredInterface;html=1;verticalLabelPosition=bottom;sketch=0;direction=south;rotation=-45;" parent="1" vertex="1">
          <mxGeometry x="470" y="400" width="20" height="10" as="geometry" />
        </mxCell>
        <mxCell id="Su44JhsrkbpfJOnmUsiU-38" value="" style="endArrow=none;html=1;rounded=0;strokeColor=default;exitX=0.444;exitY=-0.036;exitDx=0;exitDy=0;exitPerimeter=0;" parent="1" source="Su44JhsrkbpfJOnmUsiU-8" target="Su44JhsrkbpfJOnmUsiU-35" edge="1">
          <mxGeometry width="50" height="50" relative="1" as="geometry">
            <mxPoint x="583.28" y="467.8399999999999" as="sourcePoint" />
            <mxPoint x="490" y="410" as="targetPoint" />
          </mxGeometry>
        </mxCell>
        <mxCell id="Su44JhsrkbpfJOnmUsiU-40" value="" style="endArrow=none;html=1;rounded=0;strokeColor=default;entryX=0;entryY=0.5;entryDx=0;entryDy=0;exitX=1;exitY=0.5;exitDx=0;exitDy=0;exitPerimeter=0;" parent="1" source="Su44JhsrkbpfJOnmUsiU-30" target="Su44JhsrkbpfJOnmUsiU-16" edge="1">
          <mxGeometry width="50" height="50" relative="1" as="geometry">
            <mxPoint x="415" y="430" as="sourcePoint" />
            <mxPoint x="415" y="380" as="targetPoint" />
          </mxGeometry>
        </mxCell>
        <mxCell id="Su44JhsrkbpfJOnmUsiU-41" value="" style="endArrow=none;html=1;rounded=0;strokeColor=default;entryX=1;entryY=0.5;entryDx=0;entryDy=0;exitX=0.5;exitY=0;exitDx=0;exitDy=0;entryPerimeter=0;" parent="1" source="Su44JhsrkbpfJOnmUsiU-6" target="Su44JhsrkbpfJOnmUsiU-30" edge="1">
          <mxGeometry width="50" height="50" relative="1" as="geometry">
            <mxPoint x="320.90423977855517" y="402.86788218175525" as="sourcePoint" />
            <mxPoint x="400" y="365" as="targetPoint" />
          </mxGeometry>
        </mxCell>
        <mxCell id="Su44JhsrkbpfJOnmUsiU-47" value="Plays" style="rhombus;whiteSpace=wrap;html=1;rotation=0;" parent="1" vertex="1">
          <mxGeometry x="670" y="35" width="100" height="70" as="geometry" />
        </mxCell>
        <mxCell id="Su44JhsrkbpfJOnmUsiU-49" value="" style="endArrow=none;html=1;rounded=0;strokeColor=default;entryX=0.5;entryY=1;entryDx=0;entryDy=0;exitX=0.5;exitY=0;exitDx=0;exitDy=0;" parent="1" source="Su44JhsrkbpfJOnmUsiU-50" target="Su44JhsrkbpfJOnmUsiU-47" edge="1">
          <mxGeometry width="50" height="50" relative="1" as="geometry">
            <mxPoint x="585" y="270" as="sourcePoint" />
            <mxPoint x="590" y="240" as="targetPoint" />
          </mxGeometry>
        </mxCell>
        <mxCell id="Su44JhsrkbpfJOnmUsiU-50" value="Instrument" style="rounded=0;whiteSpace=wrap;html=1;" parent="1" vertex="1">
          <mxGeometry x="660" y="220" width="120" height="60" as="geometry" />
        </mxCell>
        <mxCell id="Su44JhsrkbpfJOnmUsiU-51" value="" style="endArrow=none;html=1;rounded=0;strokeColor=default;entryX=0.5;entryY=1;entryDx=0;entryDy=0;exitX=0.5;exitY=0;exitDx=0;exitDy=0;" parent="1" source="Su44JhsrkbpfJOnmUsiU-52" target="Su44JhsrkbpfJOnmUsiU-50" edge="1">
          <mxGeometry width="50" height="50" relative="1" as="geometry">
            <mxPoint x="750" y="360" as="sourcePoint" />
            <mxPoint x="635" y="199.9999999999999" as="targetPoint" />
          </mxGeometry>
        </mxCell>
        <mxCell id="Su44JhsrkbpfJOnmUsiU-52" value="Requires" style="rhombus;whiteSpace=wrap;html=1;rotation=0;" parent="1" vertex="1">
          <mxGeometry x="685" y="320" width="70" height="70" as="geometry" />
        </mxCell>
        <mxCell id="Su44JhsrkbpfJOnmUsiU-53" value="Music" style="rounded=0;whiteSpace=wrap;html=1;" parent="1" vertex="1">
          <mxGeometry x="810" y="460" width="120" height="60" as="geometry" />
        </mxCell>
        <mxCell id="Su44JhsrkbpfJOnmUsiU-56" value="d" style="ellipse;whiteSpace=wrap;html=1;aspect=fixed;" parent="1" vertex="1">
          <mxGeometry x="855" y="560" width="30" height="30" as="geometry" />
        </mxCell>
        <mxCell id="Su44JhsrkbpfJOnmUsiU-60" value="" style="endArrow=none;html=1;rounded=0;strokeColor=default;entryX=0;entryY=1;entryDx=0;entryDy=0;exitX=1;exitY=0.5;exitDx=0;exitDy=0;exitPerimeter=0;" parent="1" source="Su44JhsrkbpfJOnmUsiU-61" target="Su44JhsrkbpfJOnmUsiU-56" edge="1">
          <mxGeometry width="50" height="50" relative="1" as="geometry">
            <mxPoint x="700" y="640" as="sourcePoint" />
            <mxPoint x="630" y="610" as="targetPoint" />
          </mxGeometry>
        </mxCell>
        <mxCell id="Su44JhsrkbpfJOnmUsiU-61" value="" style="shape=requiredInterface;html=1;verticalLabelPosition=bottom;sketch=0;rotation=-225;" parent="1" vertex="1">
          <mxGeometry x="760" y="630" width="10" height="20" as="geometry" />
        </mxCell>
        <mxCell id="Su44JhsrkbpfJOnmUsiU-63" value="" style="endArrow=none;html=1;rounded=0;strokeColor=default;entryX=1;entryY=0.5;entryDx=0;entryDy=0;entryPerimeter=0;exitX=0.5;exitY=0;exitDx=0;exitDy=0;" parent="1" source="Su44JhsrkbpfJOnmUsiU-64" target="Su44JhsrkbpfJOnmUsiU-61" edge="1">
          <mxGeometry width="50" height="50" relative="1" as="geometry">
            <mxPoint x="690" y="670" as="sourcePoint" />
            <mxPoint x="690" y="670" as="targetPoint" />
          </mxGeometry>
        </mxCell>
        <mxCell id="Su44JhsrkbpfJOnmUsiU-64" value="Swedish Folk" style="rounded=0;whiteSpace=wrap;html=1;" parent="1" vertex="1">
          <mxGeometry x="635" y="690" width="120" height="60" as="geometry" />
        </mxCell>
        <mxCell id="Su44JhsrkbpfJOnmUsiU-65" value="" style="endArrow=none;html=1;rounded=0;strokeColor=default;exitX=0.5;exitY=1;exitDx=0;exitDy=0;entryX=1;entryY=0.5;entryDx=0;entryDy=0;entryPerimeter=0;" parent="1" source="Su44JhsrkbpfJOnmUsiU-56" target="Su44JhsrkbpfJOnmUsiU-66" edge="1">
          <mxGeometry width="50" height="50" relative="1" as="geometry">
            <mxPoint x="730" y="610" as="sourcePoint" />
            <mxPoint x="780" y="620" as="targetPoint" />
            <Array as="points" />
          </mxGeometry>
        </mxCell>
        <mxCell id="Su44JhsrkbpfJOnmUsiU-66" value="" style="shape=requiredInterface;html=1;verticalLabelPosition=bottom;sketch=0;rotation=90;" parent="1" vertex="1">
          <mxGeometry x="865" y="650" width="10" height="20" as="geometry" />
        </mxCell>
        <mxCell id="Su44JhsrkbpfJOnmUsiU-67" value="" style="endArrow=none;html=1;rounded=0;strokeColor=default;entryX=1;entryY=0.5;entryDx=0;entryDy=0;entryPerimeter=0;exitX=0.5;exitY=0;exitDx=0;exitDy=0;" parent="1" source="Su44JhsrkbpfJOnmUsiU-68" target="Su44JhsrkbpfJOnmUsiU-66" edge="1">
          <mxGeometry width="50" height="50" relative="1" as="geometry">
            <mxPoint x="790" y="680" as="sourcePoint" />
            <mxPoint x="790" y="600" as="targetPoint" />
          </mxGeometry>
        </mxCell>
        <mxCell id="Su44JhsrkbpfJOnmUsiU-68" value="German Folk" style="rounded=0;whiteSpace=wrap;html=1;" parent="1" vertex="1">
          <mxGeometry x="810" y="700" width="120" height="60" as="geometry" />
        </mxCell>
        <mxCell id="Su44JhsrkbpfJOnmUsiU-69" value="" style="endArrow=none;html=1;rounded=0;strokeColor=default;exitX=1;exitY=0.5;exitDx=0;exitDy=0;entryX=1;entryY=0.5;entryDx=0;entryDy=0;entryPerimeter=0;" parent="1" source="Su44JhsrkbpfJOnmUsiU-56" target="Su44JhsrkbpfJOnmUsiU-70" edge="1">
          <mxGeometry width="50" height="50" relative="1" as="geometry">
            <mxPoint x="880" y="610" as="sourcePoint" />
            <mxPoint x="880" y="610" as="targetPoint" />
            <Array as="points">
              <mxPoint x="910" y="590" />
            </Array>
          </mxGeometry>
        </mxCell>
        <mxCell id="Su44JhsrkbpfJOnmUsiU-70" value="" style="shape=requiredInterface;html=1;verticalLabelPosition=bottom;sketch=0;rotation=30;" parent="1" vertex="1">
          <mxGeometry x="950" y="610" width="10" height="20" as="geometry" />
        </mxCell>
        <mxCell id="Su44JhsrkbpfJOnmUsiU-72" value="" style="endArrow=none;html=1;rounded=0;strokeColor=default;entryX=1;entryY=0.5;entryDx=0;entryDy=0;entryPerimeter=0;exitX=0.5;exitY=0;exitDx=0;exitDy=0;" parent="1" source="Su44JhsrkbpfJOnmUsiU-73" target="Su44JhsrkbpfJOnmUsiU-70" edge="1">
          <mxGeometry width="50" height="50" relative="1" as="geometry">
            <mxPoint x="980" y="660" as="sourcePoint" />
            <mxPoint x="790" y="720" as="targetPoint" />
          </mxGeometry>
        </mxCell>
        <mxCell id="Su44JhsrkbpfJOnmUsiU-73" value="Classical Music" style="rounded=0;whiteSpace=wrap;html=1;" parent="1" vertex="1">
          <mxGeometry x="970" y="670" width="120" height="60" as="geometry" />
        </mxCell>
        <mxCell id="4mEJeIrr_rNDO95biVAU-1" value="Repertoire" style="shape=rhombus;perimeter=rhombusPerimeter;whiteSpace=wrap;html=1;align=center;" parent="1" vertex="1">
          <mxGeometry x="140" y="800" width="155" height="90" as="geometry" />
        </mxCell>
        <mxCell id="4mEJeIrr_rNDO95biVAU-15" value="Repertoire&amp;nbsp;" style="shape=rhombus;perimeter=rhombusPerimeter;whiteSpace=wrap;html=1;align=center;" parent="1" vertex="1">
          <mxGeometry x="330" y="630" width="120" height="80" as="geometry" />
        </mxCell>
        <mxCell id="4mEJeIrr_rNDO95biVAU-16" value="" style="endArrow=none;html=1;rounded=0;targetPerimeterSpacing=1;entryX=0.5;entryY=1;entryDx=0;entryDy=0;exitX=1;exitY=0.5;exitDx=0;exitDy=0;" parent="1" source="4mEJeIrr_rNDO95biVAU-1" target="Su44JhsrkbpfJOnmUsiU-73" edge="1">
          <mxGeometry width="50" height="50" relative="1" as="geometry">
            <mxPoint x="400" y="900" as="sourcePoint" />
            <mxPoint x="640" y="530" as="targetPoint" />
            <Array as="points">
              <mxPoint x="1030" y="845" />
            </Array>
          </mxGeometry>
        </mxCell>
        <mxCell id="4mEJeIrr_rNDO95biVAU-17" value="" style="endArrow=none;html=1;rounded=0;targetPerimeterSpacing=1;entryX=0.5;entryY=1;entryDx=0;entryDy=0;exitX=0.5;exitY=1;exitDx=0;exitDy=0;" parent="1" source="4mEJeIrr_rNDO95biVAU-15" target="Su44JhsrkbpfJOnmUsiU-68" edge="1">
          <mxGeometry width="50" height="50" relative="1" as="geometry">
            <mxPoint x="590" y="580" as="sourcePoint" />
            <mxPoint x="640" y="530" as="targetPoint" />
            <Array as="points">
              <mxPoint x="390" y="810" />
              <mxPoint x="870" y="810" />
            </Array>
          </mxGeometry>
        </mxCell>
        <mxCell id="4mEJeIrr_rNDO95biVAU-20" value="" style="shape=link;html=1;rounded=0;targetPerimeterSpacing=1;entryX=0.5;entryY=0;entryDx=0;entryDy=0;exitX=0.5;exitY=1;exitDx=0;exitDy=0;" parent="1" source="Su44JhsrkbpfJOnmUsiU-6" target="4mEJeIrr_rNDO95biVAU-1" edge="1">
          <mxGeometry width="100" relative="1" as="geometry">
            <mxPoint x="560" y="550" as="sourcePoint" />
            <mxPoint x="660" y="550" as="targetPoint" />
          </mxGeometry>
        </mxCell>
        <mxCell id="4mEJeIrr_rNDO95biVAU-23" value="Repertoire" style="shape=rhombus;perimeter=rhombusPerimeter;whiteSpace=wrap;html=1;align=center;" parent="1" vertex="1">
          <mxGeometry x="485" y="580" width="120" height="80" as="geometry" />
        </mxCell>
        <mxCell id="4mEJeIrr_rNDO95biVAU-24" value="" style="endArrow=none;html=1;rounded=0;targetPerimeterSpacing=1;entryX=0;entryY=0.5;entryDx=0;entryDy=0;exitX=1;exitY=0.5;exitDx=0;exitDy=0;" parent="1" source="4mEJeIrr_rNDO95biVAU-23" target="Su44JhsrkbpfJOnmUsiU-53" edge="1">
          <mxGeometry width="50" height="50" relative="1" as="geometry">
            <mxPoint x="650" y="630" as="sourcePoint" />
            <mxPoint x="700" y="580" as="targetPoint" />
            <Array as="points">
              <mxPoint x="700" y="620" />
              <mxPoint x="700" y="490" />
            </Array>
          </mxGeometry>
        </mxCell>
        <mxCell id="4mEJeIrr_rNDO95biVAU-25" value="" style="shape=link;html=1;rounded=0;targetPerimeterSpacing=1;exitX=0.5;exitY=1;exitDx=0;exitDy=0;entryX=0.5;entryY=0;entryDx=0;entryDy=0;" parent="1" source="Su44JhsrkbpfJOnmUsiU-8" target="4mEJeIrr_rNDO95biVAU-23" edge="1">
          <mxGeometry width="100" relative="1" as="geometry">
            <mxPoint x="630" y="600" as="sourcePoint" />
            <mxPoint x="730" y="600" as="targetPoint" />
          </mxGeometry>
        </mxCell>
        <mxCell id="4mEJeIrr_rNDO95biVAU-26" value="&lt;u&gt;Name&lt;/u&gt;" style="ellipse;whiteSpace=wrap;html=1;" parent="1" vertex="1">
          <mxGeometry x="177.5" y="40" width="80" height="60" as="geometry" />
        </mxCell>
        <mxCell id="4mEJeIrr_rNDO95biVAU-27" value="" style="endArrow=none;html=1;rounded=0;targetPerimeterSpacing=1;exitX=1;exitY=0.5;exitDx=0;exitDy=0;entryX=0;entryY=0.5;entryDx=0;entryDy=0;" parent="1" source="4mEJeIrr_rNDO95biVAU-26" target="Su44JhsrkbpfJOnmUsiU-2" edge="1">
          <mxGeometry width="50" height="50" relative="1" as="geometry">
            <mxPoint x="290" y="80" as="sourcePoint" />
            <mxPoint x="340" y="30" as="targetPoint" />
          </mxGeometry>
        </mxCell>
        <mxCell id="4mEJeIrr_rNDO95biVAU-28" value="Place" style="ellipse;whiteSpace=wrap;html=1;direction=west;" parent="1" vertex="1">
          <mxGeometry x="177.5" y="250" width="70" height="50" as="geometry" />
        </mxCell>
        <mxCell id="4mEJeIrr_rNDO95biVAU-29" value="Date" style="ellipse;whiteSpace=wrap;html=1;direction=west;" parent="1" vertex="1">
          <mxGeometry x="215" y="310" width="75" height="50" as="geometry" />
        </mxCell>
        <mxCell id="4mEJeIrr_rNDO95biVAU-30" value="Time" style="ellipse;whiteSpace=wrap;html=1;" parent="1" vertex="1">
          <mxGeometry x="220" y="190" width="70" height="50" as="geometry" />
        </mxCell>
        <mxCell id="4mEJeIrr_rNDO95biVAU-31" value="" style="endArrow=none;html=1;rounded=0;targetPerimeterSpacing=1;exitX=1;exitY=0.5;exitDx=0;exitDy=0;entryX=0;entryY=0;entryDx=0;entryDy=0;" parent="1" source="4mEJeIrr_rNDO95biVAU-30" target="Su44JhsrkbpfJOnmUsiU-9" edge="1">
          <mxGeometry width="50" height="50" relative="1" as="geometry">
            <mxPoint x="420" y="230" as="sourcePoint" />
            <mxPoint x="470" y="180" as="targetPoint" />
          </mxGeometry>
        </mxCell>
        <mxCell id="4mEJeIrr_rNDO95biVAU-32" value="" style="endArrow=none;html=1;rounded=0;targetPerimeterSpacing=1;exitX=0;exitY=0.5;exitDx=0;exitDy=0;entryX=0;entryY=0.5;entryDx=0;entryDy=0;" parent="1" source="4mEJeIrr_rNDO95biVAU-28" target="Su44JhsrkbpfJOnmUsiU-9" edge="1">
          <mxGeometry width="50" height="50" relative="1" as="geometry">
            <mxPoint x="420" y="230" as="sourcePoint" />
            <mxPoint x="470" y="180" as="targetPoint" />
          </mxGeometry>
        </mxCell>
        <mxCell id="4mEJeIrr_rNDO95biVAU-33" value="" style="endArrow=none;html=1;rounded=0;targetPerimeterSpacing=1;exitX=0;exitY=0.5;exitDx=0;exitDy=0;entryX=0;entryY=1;entryDx=0;entryDy=0;" parent="1" source="4mEJeIrr_rNDO95biVAU-29" target="Su44JhsrkbpfJOnmUsiU-9" edge="1">
          <mxGeometry width="50" height="50" relative="1" as="geometry">
            <mxPoint x="420" y="230" as="sourcePoint" />
            <mxPoint x="470" y="180" as="targetPoint" />
          </mxGeometry>
        </mxCell>
        <mxCell id="4mEJeIrr_rNDO95biVAU-34" value="&lt;u&gt;Name&lt;/u&gt;" style="ellipse;whiteSpace=wrap;html=1;" parent="1" vertex="1">
          <mxGeometry x="1010" y="460" width="80" height="60" as="geometry" />
        </mxCell>
        <mxCell id="4mEJeIrr_rNDO95biVAU-35" value="" style="endArrow=none;html=1;rounded=0;targetPerimeterSpacing=1;entryX=0;entryY=0.5;entryDx=0;entryDy=0;exitX=1;exitY=0.5;exitDx=0;exitDy=0;" parent="1" source="Su44JhsrkbpfJOnmUsiU-53" target="4mEJeIrr_rNDO95biVAU-34" edge="1">
          <mxGeometry width="50" height="50" relative="1" as="geometry">
            <mxPoint x="630" y="390" as="sourcePoint" />
            <mxPoint x="680" y="340" as="targetPoint" />
          </mxGeometry>
        </mxCell>
        <mxCell id="4mEJeIrr_rNDO95biVAU-36" value="&lt;u&gt;Name&lt;/u&gt;" style="ellipse;whiteSpace=wrap;html=1;" parent="1" vertex="1">
          <mxGeometry x="865" y="220" width="80" height="60" as="geometry" />
        </mxCell>
        <mxCell id="4mEJeIrr_rNDO95biVAU-37" value="" style="endArrow=none;html=1;rounded=0;targetPerimeterSpacing=1;entryX=0;entryY=0.5;entryDx=0;entryDy=0;exitX=1;exitY=0.5;exitDx=0;exitDy=0;" parent="1" source="Su44JhsrkbpfJOnmUsiU-50" target="4mEJeIrr_rNDO95biVAU-36" edge="1">
          <mxGeometry width="50" height="50" relative="1" as="geometry">
            <mxPoint x="630" y="390" as="sourcePoint" />
            <mxPoint x="680" y="340" as="targetPoint" />
          </mxGeometry>
        </mxCell>
        <mxCell id="4mEJeIrr_rNDO95biVAU-38" value="" style="shape=link;html=1;rounded=0;targetPerimeterSpacing=1;exitX=1;exitY=0.5;exitDx=0;exitDy=0;entryX=0;entryY=0.5;entryDx=0;entryDy=0;" parent="1" source="Su44JhsrkbpfJOnmUsiU-2" target="Su44JhsrkbpfJOnmUsiU-47" edge="1">
          <mxGeometry width="100" relative="1" as="geometry">
            <mxPoint x="600" y="360" as="sourcePoint" />
            <mxPoint x="700" y="360" as="targetPoint" />
          </mxGeometry>
        </mxCell>
        <mxCell id="4mEJeIrr_rNDO95biVAU-39" value="" style="shape=link;html=1;rounded=0;targetPerimeterSpacing=1;entryX=0.5;entryY=1;entryDx=0;entryDy=0;exitX=0.5;exitY=0;exitDx=0;exitDy=0;" parent="1" source="Su44JhsrkbpfJOnmUsiU-16" target="Su44JhsrkbpfJOnmUsiU-9" edge="1">
          <mxGeometry width="100" relative="1" as="geometry">
            <mxPoint x="380" y="330" as="sourcePoint" />
            <mxPoint x="480" y="330" as="targetPoint" />
          </mxGeometry>
        </mxCell>
        <mxCell id="4mEJeIrr_rNDO95biVAU-40" value="M" style="text;html=1;strokeColor=none;fillColor=none;align=center;verticalAlign=middle;whiteSpace=wrap;rounded=0;" parent="1" vertex="1">
          <mxGeometry x="1010" y="730" width="60" height="30" as="geometry" />
        </mxCell>
        <mxCell id="4mEJeIrr_rNDO95biVAU-41" value="M" style="text;html=1;strokeColor=none;fillColor=none;align=center;verticalAlign=middle;whiteSpace=wrap;rounded=0;" parent="1" vertex="1">
          <mxGeometry x="850" y="760" width="60" height="30" as="geometry" />
        </mxCell>
        <mxCell id="4mEJeIrr_rNDO95biVAU-43" value="" style="shape=link;html=1;rounded=0;targetPerimeterSpacing=1;exitX=0.5;exitY=1;exitDx=0;exitDy=0;entryX=0.5;entryY=0;entryDx=0;entryDy=0;" parent="1" source="Su44JhsrkbpfJOnmUsiU-52" target="Su44JhsrkbpfJOnmUsiU-53" edge="1">
          <mxGeometry width="100" relative="1" as="geometry">
            <mxPoint x="690" y="460" as="sourcePoint" />
            <mxPoint x="790" y="460" as="targetPoint" />
            <Array as="points">
              <mxPoint x="720" y="420" />
              <mxPoint x="870" y="420" />
            </Array>
          </mxGeometry>
        </mxCell>
        <mxCell id="4mEJeIrr_rNDO95biVAU-44" value="M" style="text;html=1;strokeColor=none;fillColor=none;align=center;verticalAlign=middle;whiteSpace=wrap;rounded=0;" parent="1" vertex="1">
          <mxGeometry x="855" y="430" width="60" height="30" as="geometry" />
        </mxCell>
        <mxCell id="4mEJeIrr_rNDO95biVAU-45" value="M" style="text;html=1;strokeColor=none;fillColor=none;align=center;verticalAlign=middle;whiteSpace=wrap;rounded=0;" parent="1" vertex="1">
          <mxGeometry x="530" y="520" width="60" height="30" as="geometry" />
        </mxCell>
        <mxCell id="4mEJeIrr_rNDO95biVAU-46" value="" style="shape=link;html=1;rounded=0;targetPerimeterSpacing=1;entryX=0.5;entryY=1;entryDx=0;entryDy=0;exitX=0.5;exitY=0;exitDx=0;exitDy=0;" parent="1" source="Su44JhsrkbpfJOnmUsiU-9" target="Su44JhsrkbpfJOnmUsiU-11" edge="1">
          <mxGeometry width="100" relative="1" as="geometry">
            <mxPoint x="390" y="340" as="sourcePoint" />
            <mxPoint x="490" y="340" as="targetPoint" />
          </mxGeometry>
        </mxCell>
        <mxCell id="4mEJeIrr_rNDO95biVAU-47" value="M" style="text;html=1;strokeColor=none;fillColor=none;align=center;verticalAlign=middle;whiteSpace=wrap;rounded=0;" parent="1" vertex="1">
          <mxGeometry x="410" y="220" width="60" height="30" as="geometry" />
        </mxCell>
        <mxCell id="4mEJeIrr_rNDO95biVAU-48" value="N" style="text;html=1;strokeColor=none;fillColor=none;align=center;verticalAlign=middle;whiteSpace=wrap;rounded=0;" parent="1" vertex="1">
          <mxGeometry x="200" y="490" width="60" height="30" as="geometry" />
        </mxCell>
        <mxCell id="4mEJeIrr_rNDO95biVAU-49" value="N" style="text;html=1;strokeColor=none;fillColor=none;align=center;verticalAlign=middle;whiteSpace=wrap;rounded=0;" parent="1" vertex="1">
          <mxGeometry x="375" y="510" width="60" height="30" as="geometry" />
        </mxCell>
        <mxCell id="4mEJeIrr_rNDO95biVAU-50" value="N" style="text;html=1;strokeColor=none;fillColor=none;align=center;verticalAlign=middle;whiteSpace=wrap;rounded=0;" parent="1" vertex="1">
          <mxGeometry x="770" y="465" width="60" height="30" as="geometry" />
        </mxCell>
        <mxCell id="4mEJeIrr_rNDO95biVAU-51" value="N" style="text;html=1;strokeColor=none;fillColor=none;align=center;verticalAlign=middle;whiteSpace=wrap;rounded=0;" parent="1" vertex="1">
          <mxGeometry x="710" y="280" width="50" height="20" as="geometry" />
        </mxCell>
        <mxCell id="4mEJeIrr_rNDO95biVAU-52" value="N" style="text;html=1;strokeColor=none;fillColor=none;align=center;verticalAlign=middle;whiteSpace=wrap;rounded=0;" parent="1" vertex="1">
          <mxGeometry x="710" y="200" width="50" height="20" as="geometry" />
        </mxCell>
        <mxCell id="4mEJeIrr_rNDO95biVAU-54" value="M" style="text;html=1;strokeColor=none;fillColor=none;align=center;verticalAlign=middle;whiteSpace=wrap;rounded=0;" parent="1" vertex="1">
          <mxGeometry x="470" y="35" width="60" height="30" as="geometry" />
        </mxCell>
        <mxCell id="4mEJeIrr_rNDO95biVAU-55" value="N" style="text;html=1;strokeColor=none;fillColor=none;align=center;verticalAlign=middle;whiteSpace=wrap;rounded=0;" parent="1" vertex="1">
          <mxGeometry x="410" y="100" width="50" height="20" as="geometry" />
        </mxCell>
        <mxCell id="4mEJeIrr_rNDO95biVAU-56" value="" style="shape=link;html=1;rounded=0;targetPerimeterSpacing=1;entryX=0.5;entryY=0;entryDx=0;entryDy=0;exitX=0.5;exitY=1;exitDx=0;exitDy=0;" parent="1" source="Su44JhsrkbpfJOnmUsiU-7" target="4mEJeIrr_rNDO95biVAU-15" edge="1">
          <mxGeometry width="100" relative="1" as="geometry">
            <mxPoint x="350" y="470" as="sourcePoint" />
            <mxPoint x="450" y="470" as="targetPoint" />
          </mxGeometry>
        </mxCell>
        <mxCell id="0gb1vT37vRar8eruFRtG-1" value="" style="endArrow=none;html=1;rounded=0;exitX=0.5;exitY=0;exitDx=0;exitDy=0;entryX=0.5;entryY=1;entryDx=0;entryDy=0;" edge="1" parent="1" source="Su44JhsrkbpfJOnmUsiU-56" target="Su44JhsrkbpfJOnmUsiU-53">
          <mxGeometry width="50" height="50" relative="1" as="geometry">
            <mxPoint x="840" y="570" as="sourcePoint" />
            <mxPoint x="890" y="520" as="targetPoint" />
          </mxGeometry>
        </mxCell>
      </root>
    </mxGraphModel>
  </diagram>
</mxfile>
